<?xml version="1.0" encoding="UTF-8" standalone="no"?>
<!-- Uploaded to: SVG Repo, www.svgrepo.com, Generator: SVG Repo Mixer Tools -->

<svg
   width="600"
   height="800"
   viewBox="0 0 18 24"
   version="1.1"
   id="svg9"
   sodipodi:docname="calculate.svg"
   inkscape:version="1.4.2 (ebf0e940, 2025-05-08)"
   xmlns:inkscape="http://www.inkscape.org/namespaces/inkscape"
   xmlns:sodipodi="http://sodipodi.sourceforge.net/DTD/sodipodi-0.dtd"
   xmlns="http://www.w3.org/2000/svg"
   xmlns:svg="http://www.w3.org/2000/svg">
  <defs
     id="defs9" />
  <sodipodi:namedview
     id="namedview9"
     pagecolor="#ffffff"
     bordercolor="#000000"
     borderopacity="0.25"
     inkscape:showpageshadow="2"
     inkscape:pageopacity="0.0"
     inkscape:pagecheckerboard="0"
     inkscape:deskcolor="#d1d1d1"
     inkscape:zoom="1.01"
     inkscape:cx="300"
     inkscape:cy="400"
     inkscape:window-width="976"
     inkscape:window-height="957"
     inkscape:window-x="0"
     inkscape:window-y="30"
     inkscape:window-maximized="0"
     inkscape:current-layer="svg9" />
  <path
     fill="#494c4e"
     d="M 14.732,2 C 15.42,2 16,2.58 16,3.268 V 20.73 C 16,21.42 15.42,22 14.732,22 H 3.268 C 2.58,22 2,21.42 2,20.732 V 3.268 C 2,2.58 2.58,2 3.268,2 h 11.464 m 0,-2 H 3.268 C 1.47,0 0,1.47 0,3.268 V 20.73 C 0,22.53 1.47,24 3.268,24 H 14.73 C 16.53,24 18,22.53 18,20.732 V 3.268 C 18,1.47 16.53,0 14.732,0 Z"
     id="path1"
     style="fill:#000000" />
  <circle
     fill="#494c4e"
     cx="5.0050001"
     cy="19"
     r="1"
     id="circle1"
     style="fill:#000000" />
  <circle
     fill="#494c4e"
     cx="9.0050001"
     cy="19"
     r="1"
     id="circle2"
     style="fill:#000000" />
  <circle
     fill="#494c4e"
     cx="13.004999"
     cy="19"
     r="1"
     id="circle3"
     style="fill:#000000" />
  <circle
     fill="#494c4e"
     cx="5.0050001"
     cy="15"
     r="1"
     id="circle4"
     style="fill:#000000" />
  <circle
     fill="#494c4e"
     cx="9.0050001"
     cy="15"
     r="1"
     id="circle5"
     style="fill:#000000" />
  <circle
     fill="#494c4e"
     cx="13.004999"
     cy="15"
     r="1"
     id="circle6"
     style="fill:#000000" />
  <circle
     fill="#494c4e"
     cx="5.0050001"
     cy="11"
     r="1"
     id="circle7"
     style="fill:#000000" />
  <circle
     fill="#494c4e"
     cx="9.0050001"
     cy="11"
     r="1"
     id="circle8"
     style="fill:#000000" />
  <circle
     fill="#494c4e"
     cx="13.004999"
     cy="11"
     r="1"
     id="circle9"
     style="fill:#000000" />
  <path
     fill="#494c4e"
     d="m 12.005,8 h -6 c -1.103,0 -2,-0.897 -2,-2 0,-1.103 0.897,-2 2,-2 h 6 c 1.103,0 2,0.897 2,2 0,1.103 -0.898,2 -2,2 z"
     id="path9"
     style="fill:#000000" />
</svg>
