<?xml version="1.0" encoding="UTF-8" standalone="no"?>
<!--
 // 16pxls (c) by Paul mackenzie <paul@whatspauldoing.com>
 //
 // 16pxls is licensed under a
 // Creative Commons Attribution-ShareAlike 4.0 International License.
 //
 // You should have received a copy of the license along with this
 // work. If not, see <http://creativecommons.org/licenses/by-sa/4.0/>.
-->

<svg
   fill="#000000"
   width="800px"
   height="800px"
   viewBox="0 0 16 16"
   version="1.1"
   id="svg1"
   sodipodi:docname="search.svg"
   inkscape:version="1.4.2 (ebf0e940, 2025-05-08)"
   xmlns:inkscape="http://www.inkscape.org/namespaces/inkscape"
   xmlns:sodipodi="http://sodipodi.sourceforge.net/DTD/sodipodi-0.dtd"
   xmlns="http://www.w3.org/2000/svg"
   xmlns:svg="http://www.w3.org/2000/svg">
  <defs
     id="defs1" />
  <sodipodi:namedview
     id="namedview1"
     pagecolor="#ffffff"
     bordercolor="#000000"
     borderopacity="0.25"
     inkscape:showpageshadow="2"
     inkscape:pageopacity="0.0"
     inkscape:pagecheckerboard="0"
     inkscape:deskcolor="#d1d1d1"
     inkscape:zoom="1.01"
     inkscape:cx="162.37624"
     inkscape:cy="400"
     inkscape:window-width="976"
     inkscape:window-height="957"
     inkscape:window-x="0"
     inkscape:window-y="30"
     inkscape:window-maximized="0"
     inkscape:current-layer="svg1" />
  <path
     d="M12.027 9.92L16 13.95 14 16l-4.075-3.976A6.465 6.465 0 0 1 6.5 13C2.91 13 0 10.083 0 6.5 0 2.91 2.917 0 6.5 0 10.09 0 13 2.917 13 6.5a6.463 6.463 0 0 1-.973 3.42zM1.997 6.452c0 2.48 2.014 4.5 4.5 4.5 2.48 0 4.5-2.015 4.5-4.5 0-2.48-2.015-4.5-4.5-4.5-2.48 0-4.5 2.014-4.5 4.5z"
     fill-rule="evenodd"
     id="path1" />
</svg>
