<?xml version="1.0" encoding="UTF-8" standalone="no"?>
<!-- Uploaded to: SVG Repo, www.svgrepo.com, Generator: SVG Repo Mixer Tools -->

<svg
   width="627.0459"
   height="580.64075"
   viewBox="0 0 18.811377 17.419222"
   fill="none"
   version="1.1"
   id="svg1"
   sodipodi:docname="send.svg"
   inkscape:version="1.4.2 (ebf0e940, 2025-05-08)"
   xmlns:inkscape="http://www.inkscape.org/namespaces/inkscape"
   xmlns:sodipodi="http://sodipodi.sourceforge.net/DTD/sodipodi-0.dtd"
   xmlns="http://www.w3.org/2000/svg"
   xmlns:svg="http://www.w3.org/2000/svg">
  <defs
     id="defs1" />
  <sodipodi:namedview
     id="namedview1"
     pagecolor="#ffffff"
     bordercolor="#000000"
     borderopacity="0.25"
     inkscape:showpageshadow="2"
     inkscape:pageopacity="0.0"
     inkscape:pagecheckerboard="0"
     inkscape:deskcolor="#d1d1d1"
     inkscape:zoom="1.01"
     inkscape:cx="315.84158"
     inkscape:cy="290.09901"
     inkscape:window-width="976"
     inkscape:window-height="957"
     inkscape:window-x="0"
     inkscape:window-y="30"
     inkscape:window-maximized="0"
     inkscape:current-layer="svg1" />
  <path
     d="m 8.9669436,8.7121243 h -6.08158 m -0.17238,0.7972 -1.00476,3.0013997 c -0.5503,1.6438 -0.82545002,2.4657 -0.62799,2.9718 0.17147,0.4396 0.53976,0.7728 0.99421,0.8997 0.52331,0.146 1.31371,-0.2097 2.89451,-0.921 l 10.1343904,-4.5605 c 1.543,-0.6944 2.3145,-1.0414997 2.5529,-1.5237997 0.2072,-0.419 0.2072,-0.9107 0,-1.3297 -0.2384,-0.4822 -1.0099,-0.8294 -2.5529,-1.52375 L 4.9514736,1.9551543 c -1.57604,-0.70921 -2.36405,-1.06381998 -2.88684,-0.91835 -0.45402,0.12633 -0.82227,0.45868 -0.99434,0.89741 -0.19814002,0.50519 0.07407,1.32532 0.6185,2.96558 l 1.02614,3.09163 c 0.0935,0.2817 0.14026,0.4226 0.15871,0.5666 0.01638,0.1279 0.01621,0.2573 -4.9e-4,0.3851 -0.01883,0.144 -0.06594,0.2847 -0.16017,0.5662 z"
     stroke="#000000"
     stroke-width="2"
     stroke-linecap="round"
     stroke-linejoin="round"
     id="path1" />
</svg>
